<svg width="125" height="51" viewBox="0 0 125 51" fill="none" xmlns="http://www.w3.org/2000/svg">
  <path d="M17.6367 41.2939L19.1779 47.464L23.8681 42.9351L22.1711 39.9919L17.6367 41.2939Z" fill="#FCAF17"/>
  <path d="M43.3797 24.0965L48.5484 19.1002L42.1669 17.2698L40.0693 20.8973L43.3797 24.0965Z" fill="#FCAF17"/>
  <path d="M7.83934 25.9768L2.66504 30.973L9.05224 32.8035L11.1497 29.176L7.83934 25.9768Z" fill="#FCAF17"/>
  <path d="M33.5774 8.77948L32.0418 2.60938L27.3516 7.13818L29.0485 10.0814L33.5774 8.77948Z" fill="#FCAF17"/>
  <path d="M8.3289 16.0237L0 18.4105L7.8393 25.9771L11.8452 22.1104L8.3289 16.0237Z" fill="#00AEEF"/>
  <path d="M41.7169 14.2542L43.8144 5.84741L33.5771 8.77951L34.9458 14.2542H41.7169Z" fill="#00AEEF"/>
  <path d="M26.6504 44.148L32.7872 50.0734L35.2241 40.309L29.7661 38.7456L26.6504 44.148Z" fill="#00AEEF"/>
  <path d="M9.29688 7.84473L10.8992 14.2541H14.8773L15.9956 9.76423L9.29688 7.84473Z" fill="#FCAF17"/>
  <path d="M24.5698 5.9254L18.433 0L15.9961 9.7643L21.4485 11.3277L24.5698 5.9254Z" fill="#00AEEF"/>
  <path d="M42.8847 34.0499L51.2192 31.6631L43.3799 24.0964L39.374 27.9632L42.8847 34.0499Z" fill="#00AEEF"/>
  <path d="M9.49717 35.8191L7.40527 44.2259L17.6369 41.2938L16.2738 35.8191H9.49717Z" fill="#00AEEF"/>
  <path d="M40.321 35.8191H36.3429L35.2246 40.309L41.9178 42.2285L40.321 35.8191Z" fill="#FCAF17"/>
  <path d="M15.9962 9.7644L14.8779 14.2543H19.7629L21.4487 11.3278L15.9962 9.7644Z" fill="#DA291C"/>
  <path d="M40.0704 20.8972L40.0593 20.9251L37.6836 25.0366L39.375 27.9632L43.3808 24.0964L40.0704 20.8972Z" fill="#DA291C"/>
  <path d="M31.457 35.8191L29.7656 38.7456L35.2236 40.309L36.3419 35.8191H31.457Z" fill="#DA291C"/>
  <path d="M11.8447 22.1101L7.83887 25.9769L11.1493 29.176L13.5361 25.0366L11.8447 22.1101Z" fill="#DA291C"/>
  <path d="M19.7619 35.8191H16.2734L17.6365 41.2938L22.171 39.9919L19.7619 35.8191Z" fill="#DA291C"/>
  <path d="M33.5767 8.77954L29.0479 10.0815L31.4569 14.2542H34.9454L33.5767 8.77954Z" fill="#DA291C"/>
  <path d="M64.4331 14.2599C61.3007 13.7091 59.4091 12.0344 59.4091 9.28041C59.4091 6.31491 62.1353 4.49561 65.3233 4.49561C68.2888 4.49561 70.1804 5.76411 71.5213 7.17731L69.535 9.28591C68.6003 8.16211 67.2595 7.08271 65.2009 7.08271C63.1423 7.08271 62.28 8.20661 62.28 9.21361C62.28 10.3653 63.0199 11.1776 65.0563 11.4892L66.7309 11.7785C70.4141 12.3794 72.0944 14.2655 72.0944 16.9472C72.0944 19.6289 69.7242 21.8043 65.6794 21.8043C62.5693 21.8043 60.3883 20.3466 59.0029 18.5996L60.9391 16.6356C61.9684 17.9765 63.3593 19.2227 66.0355 19.2227C68.1664 19.2227 69.2179 18.2435 69.2179 16.9973C69.2179 15.8956 68.5224 14.9609 66.4639 14.6049L64.4276 14.271L64.4331 14.2599Z" fill="#414042"/>
  <path fill-rule="evenodd" clip-rule="evenodd" d="M77.347 6.24241C77.347 5.28541 76.5792 4.54541 75.6222 4.54541C74.6652 4.54541 73.8975 5.28541 73.8975 6.24241C73.8975 7.19931 74.6652 7.96711 75.6222 7.96711C76.5792 7.96711 77.347 7.19931 77.347 6.24241ZM76.9631 9.80871H74.2368V21.537H76.9631V9.80871Z" fill="#414042"/>
  <path d="M82.303 21.5372H79.5771V9.80883H82.259V10.7658C82.86 10.0982 83.934 9.51953 85.297 9.51953C88.168 9.51953 89.942 11.3889 89.942 14.7105V21.5316H87.216V14.7105C87.216 13.0803 86.404 11.9843 84.896 11.9843C83.199 11.9843 82.309 13.2027 82.309 15.0499V21.5372H82.303Z" fill="#414042"/>
  <path fill-rule="evenodd" clip-rule="evenodd" d="M100.325 10.8658C99.5856 10.0985 98.6294 9.52562 97.0012 9.5249C97.0022 9.5249 97.0032 9.5249 97.0042 9.5249H96.9982C96.9992 9.5249 97.0002 9.5249 97.0012 9.5249C93.6308 9.52644 91.2842 12.1631 91.2842 15.6784C91.2842 19.1947 93.6322 21.804 97.0042 21.804C98.5342 21.804 99.5852 21.231 100.281 20.6802V21.5426H103.007V9.8142H100.325V10.8658ZM100.325 15.6728C100.325 17.6368 99.2742 19.4562 97.1652 19.4562C95.0622 19.4562 94.0552 17.6368 94.0552 15.6728C94.0552 13.7088 95.0562 12.0119 97.1652 12.0119C99.2742 12.0119 100.325 13.7088 100.325 15.6728Z" fill="#414042"/>
  <path fill-rule="evenodd" clip-rule="evenodd" d="M108.738 6.24241C108.738 5.28541 107.97 4.54541 107.013 4.54541C106.056 4.54541 105.288 5.28541 105.288 6.24241C105.288 7.19931 106.056 7.96711 107.013 7.96711C107.97 7.96711 108.738 7.19931 108.738 6.24241ZM108.354 9.80871H105.627V21.537H108.354V9.80871Z" fill="#414042"/>
  <path d="M70.2691 36.8542H62.3965V44.1093H59.5479V27.3347H62.3965V34.2504H70.2691V27.3347H73.14V44.1093H70.2691V36.8542Z" fill="#414042"/>
  <path fill-rule="evenodd" clip-rule="evenodd" d="M80.779 41.9058C79.032 41.9058 77.8358 40.8264 77.6911 39.0572L77.6967 39.0627H85.714C85.714 39.0627 85.736 38.5119 85.736 38.1058C85.736 35.1347 84.156 32.0969 80.373 32.0969C76.9734 32.0969 74.8926 34.7508 74.8926 38.3172C74.8926 41.8835 77.2627 44.3705 80.779 44.3705C83.171 44.3705 84.629 43.2689 85.636 41.9781L83.795 40.2534C83.127 41.2326 82.164 41.9058 80.779 41.9058ZM82.838 36.8817H77.8358C78.0472 35.7579 78.8651 34.5839 80.395 34.5839C82.214 34.5839 82.815 35.8525 82.838 36.8817Z" fill="#414042"/>
  <path fill-rule="evenodd" clip-rule="evenodd" d="M96.2187 33.4324C95.4791 32.665 94.5227 32.0921 92.8943 32.0916C92.8951 32.0916 92.8959 32.0916 92.8967 32.0916H92.8917C92.8926 32.0916 92.8934 32.0916 92.8943 32.0916C89.5246 32.0928 87.1777 34.7296 87.1777 38.245C87.1777 41.7613 89.5257 44.3707 92.8967 44.3707C94.4267 44.3707 95.4787 43.7976 96.1737 43.2468V44.1092H98.8997V32.3809H96.2187V33.4324ZM96.2187 38.2395C96.2187 40.2035 95.1667 42.0228 93.0587 42.0228C90.9547 42.0228 89.9477 40.2035 89.9477 38.2395C89.9477 36.2755 90.9497 34.5785 93.0587 34.5785C95.1667 34.5785 96.2187 36.2755 96.2187 38.2395Z" fill="#414042"/>
  <path d="M101.499 27.3291H104.225V44.1037H101.499V27.3291Z" fill="#414042"/>
  <path d="M107.246 39.9699V34.8235H105.521V32.381H107.246V29.104H109.95V32.381H112.749V34.8235H109.95V39.5638C109.95 41.2607 110.334 41.6947 111.864 41.6947C112.126 41.6947 112.749 41.6502 112.749 41.6502V44.0926C112.749 44.0926 112.22 44.1427 111.291 44.1427C108.225 44.1427 107.246 42.9465 107.246 39.9755V39.9699Z" fill="#414042"/>
  <path d="M117.367 44.1093H114.641V27.3347H117.367V33.1988C117.962 32.648 118.991 32.0972 120.288 32.0972C123.042 32.0972 125 33.9666 125 37.2882V44.1093H122.274V37.2882C122.274 35.658 121.462 34.562 119.954 34.562C118.257 34.562 117.367 35.7804 117.367 37.6276V44.1149V44.1093Z" fill="#414042"/>
</svg>
